<svg width="45" height="44" viewBox="0 0 45 44" fill="none" xmlns="http://www.w3.org/2000/svg">
<g id="money (8) 1" clip-path="url(#clip0_92_52)">
<g id="Group">
<g id="Group_2">
<g id="Group_3">
<g id="Group_4">
<g id="Group_5">
<path id="Vector" d="M30.8949 33.7054L18.5764 35.2228C17.9926 35.2947 17.4618 34.879 17.3911 34.2945L14.2827 8.57018C14.2122 7.98657 14.6274 7.45557 15.2103 7.38375L27.5288 5.86632C28.1126 5.79437 28.6434 6.21017 28.7141 6.79462L31.8225 32.5189C31.893 33.1026 31.4779 33.6336 30.8949 33.7054Z" fill="#57AD7B"/>
</g>
</g>
</g>
</g>
<g id="Group_6">
<g id="Group_7">
<g id="Group_8">
<g id="Group_9">
<path id="Vector_2" d="M26.9681 38.5142L14.7981 36.1189C14.221 36.0053 13.8457 35.4448 13.96 34.8673L18.9948 9.43394C19.109 8.85717 19.6685 8.48176 20.2448 8.5952L32.4149 10.9906C32.992 11.1041 33.3672 11.6646 33.253 12.2421L28.2182 37.6755C28.104 38.2523 27.5445 38.6277 26.9681 38.5142Z" fill="#81CDA1"/>
<path id="Vector_3" d="M32.415 10.9906L20.245 8.59518C19.6686 8.48174 19.1091 8.85715 18.995 9.43392L18.799 10.4237L30.6495 12.7561C31.2265 12.8697 31.6018 13.4302 31.4875 14.0077L26.6486 38.4514L26.9682 38.5143C27.5446 38.6277 28.1041 38.2523 28.2183 37.6755L33.2531 12.2421C33.3674 11.6646 32.9921 11.1042 32.415 10.9906Z" fill="#60BF88"/>
<path id="Vector_4" d="M27.8541 19.7856C25.7705 17.4448 22.1817 17.2383 19.8382 19.3243C17.4948 21.4103 17.2842 24.9989 19.3679 27.3397C21.4515 29.6804 25.0403 29.887 27.3838 27.801C29.7272 25.715 29.9378 22.1264 27.8541 19.7856Z" fill="#29795D"/>
</g>
<g id="Group_10">
<path id="Vector_5" d="M14.6499 31.3851C17.1495 31.8771 18.7746 34.3024 18.2798 36.8022L14.7973 36.1168C14.2211 36.0034 13.8466 35.4432 13.9609 34.8657L14.6499 31.3851Z" fill="#29795D"/>
<path id="Vector_6" d="M23.4969 37.8288C23.9928 35.3237 26.4168 33.6908 28.9111 34.1818L28.2202 37.672C28.1058 38.2495 27.546 38.6258 26.9697 38.5124L23.4969 37.8288Z" fill="#29795D"/>
<path id="Vector_7" d="M32.5669 15.7202C30.0674 15.2282 28.4422 12.8028 28.937 10.3031L32.4195 10.9885C32.9958 11.1019 33.3702 11.6621 33.2559 12.2396L32.5669 15.7202Z" fill="#29795D"/>
<path id="Vector_8" d="M23.721 9.27491C23.2251 11.78 20.801 13.4128 18.3067 12.9219L18.9977 9.43169C19.112 8.85417 19.6719 8.47792 20.2481 8.59132L23.721 9.27491Z" fill="#29795D"/>
</g>
</g>
<g id="Group_11">
<g id="Group_12">
<path id="Vector_9" d="M25.6033 15.4678C25.4966 15.5746 25.3402 15.6278 25.181 15.5963C24.9274 15.546 24.7625 15.2997 24.8127 15.0461L25.3277 12.4442C25.378 12.1907 25.6243 12.0257 25.8779 12.0759C26.1315 12.1261 26.2965 12.3724 26.2463 12.6261L25.7312 15.2279C25.7125 15.3223 25.6666 15.4045 25.6033 15.4678Z" fill="#29795D"/>
</g>
<g id="Group_13">
<path id="Vector_10" d="M21.7576 34.9053C21.6508 35.0121 21.4945 35.0653 21.3353 35.0337C21.0817 34.9835 20.9168 34.7372 20.967 34.4836L21.482 31.8818C21.5322 31.6282 21.7785 31.4633 22.0322 31.5135C22.2858 31.5637 22.4507 31.81 22.4005 32.0636L21.8855 34.6654C21.8668 34.7599 21.8209 34.842 21.7576 34.9053Z" fill="#29795D"/>
</g>
</g>
</g>
</g>
</g>
</g>
<defs>
<clipPath id="clip0_92_52">
<rect width="31.0242" height="31.0242" fill="white" transform="translate(0.333984 21.9374) rotate(-45)"/>
</clipPath>
</defs>
</svg>
